<svg width="400" height="600" xmlns="http://www.w3.org/2000/svg">
 <g id="Layer_1">
  <title>Layer 1</title>
  <rect id="svg_267" height="649" width="499" y="-6" x="-90" stroke="#666666" fill="#00c800"/>
  <path stroke-width="20" id="svg_24" d="m1,5.03356c0,-2.73513 2.30628,-5.03356 5.05076,-5.03356l387.89849,0c2.74448,0 5.05076,2.29843 5.05076,5.03356l0,589.93286c0,2.73513 -2.30628,5.03356 -5.05076,5.03356l-387.89849,0c-2.74448,0 -5.05076,-2.29843 -5.05076,-5.03356l0,-589.93286z" opacity="undefined" stroke="#000000" fill="none"/>
  <g id="svg_50">
   <path id="svg_41" d="m87,586c-11.60221,0 -21,-9.62155 -21,-21.5c0,-11.87845 9.39779,-21.5 21,-21.5c11.60221,0 21,9.62155 21,21.5c0,11.87845 -9.39779,21.5 -21,21.5z" opacity="undefined" stroke-width="0" stroke="#000000" fill="#535F75"/>
   <ellipse stroke-width="0" ry="21.5" rx="21" id="svg_42" cy="564.5" cx="156" stroke="#000000" fill="#645A73"/>
   <rect id="svg_49" height="43" width="74" y="543" x="84" stroke-width="0" stroke="#000000" fill="#535F75"/>
  </g>
  <path id="svg_25" d="m44.83332,64.58346l312,0l0,502l-312,0l0,-502z" opacity="undefined" stroke="#000000" fill="#8391AE"/>
  <path id="svg_26" d="m339,78c-7.73481,0 -14,-5.59392 -14,-12.5c0,-6.90608 6.26519,-12.5 14,-12.5c7.73481,0 14,5.59392 14,12.5c0,6.90608 -6.26519,12.5 -14,12.5z" opacity="undefined" stroke="#000000" fill="#8391AE"/>
  <ellipse ry="4.5" rx="5" id="svg_28" cy="576.5" cx="87" stroke-width="0" stroke="#000000" fill="#ffffff"/>
  <ellipse ry="4.5" rx="5" id="svg_29" cy="575.5" cx="158" stroke-width="0" stroke="#000000" fill="#ffffff"/>
  <rect id="svg_31" height="0" width="14" y="511" x="284" stroke-width="0" stroke="#000000" fill="#ffffff"/>
  <rect id="svg_37" height="82" width="105" y="78" x="216" stroke="#000000" fill="#ffffff"/>
  <g id="svg_38">
   <rect id="svg_30" height="40.67952" width="54" y="515.32048" x="251" stroke="#000000" fill="#ffffff"/>
   <rect id="svg_32" height="40.67952" width="54" y="449.87952" x="250" stroke="#000000" fill="#ffffff"/>
   <rect id="svg_33" height="40.67952" width="54" y="386.20723" x="250" stroke="#000000" fill="#ffffff"/>
   <path id="svg_34" d="m250,319.88193l54,0l0,40.67952l-54,0l0,-40.67952z" opacity="undefined" stroke="#000000" fill="#ffffff"/>
   <path id="svg_35" d="m251,255.3253l54,0l0,40.67952l-54,0l0,-40.67952z" opacity="undefined" stroke="#000000" fill="#ffffff"/>
   <rect id="svg_36" height="40.67952" width="54" y="189" x="251" stroke="#000000" fill="#ffffff"/>
  </g>
  <rect stroke-width="0" id="svg_51" height="32" width="31" y="64.66667" x="323" stroke="#000000" fill="#8391AE"/>
  <ellipse ry="4.5" rx="5" id="svg_52" cy="66.5" cx="339" stroke-width="0" stroke="#000000" fill="#ffffff"/>
  <rect id="svg_53" height="76" width="126" y="225.99999" x="96.33353" stroke-width="0" stroke="#000000" fill="#000000"/>
  <text transform="rotate(90, 229.755, 102.812)" font-weight="bold" xml:space="preserve" text-anchor="start" font-family="'JetBrains Mono'" font-size="5" stroke-width="0" id="svg_63" y="105" x="214" stroke="#000000" fill="#000000">random text</text>
  <text transform="rotate(90, 237.479, 117.812)" font-weight="bold" xml:space="preserve" text-anchor="start" font-family="'JetBrains Mono'" font-size="5" stroke-width="0" id="svg_65" y="120" x="206" stroke="#000000" fill="#000000">very random lorem ipsm</text>
  <g id="svg_68">
   <ellipse ry="14.5" rx="13" id="svg_66" cy="103.5" cx="288" stroke-width="6" stroke="#999999" fill="none"/>
   <ellipse ry="14.5" rx="13" id="svg_67" cy="133.5" cx="289" stroke-width="6" stroke="#999999" fill="none"/>
  </g>
  <text transform="rotate(90, 249.479, 117.812)" font-weight="bold" xml:space="preserve" text-anchor="start" font-family="'JetBrains Mono'" font-size="5" stroke-width="0" id="svg_69" y="120" x="218" stroke="#000000" fill="#000000">very random lorem ipsm</text>
  <rect id="svg_73" height="16" width="9" y="151" x="146" stroke-width="0" stroke="#000000" fill="#000000"/>
  <rect id="svg_74" height="16" width="9" y="178" x="80" stroke-width="0" stroke="#000000" fill="#000000"/>
  <rect id="svg_75" height="16" width="9" y="178" x="102" stroke-width="0" stroke="#000000" fill="#000000"/>
  <rect id="svg_76" height="16" width="9" y="178" x="124" stroke-width="0" stroke="#000000" fill="#000000"/>
  <rect id="svg_77" height="16" width="9" y="178" x="146" stroke-width="0" stroke="#000000" fill="#000000"/>
  <ellipse ry="6.5" rx="6" id="svg_78" cy="173.5" cx="61" stroke-width="0" stroke="#000000" fill="#ffffff"/>
  <ellipse ry="6.5" rx="6" id="svg_79" cy="173.5" cx="340" stroke-width="0" stroke="#000000" fill="#ffffff"/>
  <ellipse id="svg_80" cy="350" cx="316" stroke-width="0" stroke="#000000" fill="#ffffff"/>
  <ellipse ry="5" rx="4.5" id="svg_81" cy="237" cx="54.16667" stroke-width="0" stroke="#000000" fill="#000000"/>
  <ellipse ry="5" rx="4.5" id="svg_82" cy="251" cx="54.16667" stroke-width="0" stroke="#000000" fill="#000000"/>
  <ellipse ry="5" rx="4.5" id="svg_83" cy="263" cx="54.16667" stroke-width="0" stroke="#000000" fill="#000000"/>
  <ellipse ry="5" rx="4.5" id="svg_84" cy="277" cx="54.16667" stroke-width="0" stroke="#000000" fill="#000000"/>
  <ellipse ry="5" rx="4.5" id="svg_85" cy="290" cx="54.16667" stroke-width="0" stroke="#000000" fill="#000000"/>
  <ellipse ry="5" rx="4.5" id="svg_86" cy="304" cx="54.16667" stroke-width="0" stroke="#000000" fill="#000000"/>
  <ellipse ry="5" rx="4.5" id="svg_87" cy="316" cx="54.16667" stroke-width="0" stroke="#000000" fill="#000000"/>
  <ellipse ry="5" rx="4.5" id="svg_88" cy="330" cx="54.16667" stroke-width="0" stroke="#000000" fill="#000000"/>
  <ellipse ry="5" rx="4.5" id="svg_89" cy="343" cx="54.16667" stroke-width="0" stroke="#000000" fill="#000000"/>
  <ellipse ry="5" rx="4.5" id="svg_90" cy="357" cx="54.16667" stroke-width="0" stroke="#000000" fill="#000000"/>
  <ellipse ry="5" rx="4.5" id="svg_91" cy="369" cx="54.16667" stroke-width="0" stroke="#000000" fill="#000000"/>
  <ellipse ry="5" rx="4.5" id="svg_92" cy="383" cx="54.16667" stroke-width="0" stroke="#000000" fill="#000000"/>
  <ellipse ry="5" rx="4.5" id="svg_93" cy="399" cx="53.5" stroke-width="0" stroke="#000000" fill="#000000"/>
  <ellipse ry="5" rx="4.5" id="svg_94" cy="413" cx="53.5" stroke-width="0" stroke="#000000" fill="#000000"/>
  <ellipse ry="5" rx="4.5" id="svg_95" cy="425" cx="53.5" stroke-width="0" stroke="#000000" fill="#000000"/>
  <ellipse ry="5" rx="4.5" id="svg_96" cy="439" cx="53.5" stroke-width="0" stroke="#000000" fill="#000000"/>
  <rect id="svg_97" height="40" width="20" y="405" x="111" stroke-width="0" stroke="#000000" fill="#000000"/>
  <g id="svg_109">
   <rect id="svg_102" height="51" width="23.02325" y="394" x="111" stroke-width="0" stroke="#000000" fill="#000000"/>
   <rect id="svg_103" height="51" width="23.02325" y="394" x="186.97674" stroke-width="0" stroke="#000000" fill="#000000"/>
  </g>
  <rect id="svg_111" height="31" width="24" y="84" x="328" stroke="#000000" fill="#4c4c4c"/>
  <ellipse ry="7" rx="7.5" id="svg_112" cy="99" cx="339.5" stroke-width="0" stroke="#000000" fill="#000000"/>
  <g id="svg_117">
   <rect id="svg_114" height="37" width="140" y="85" x="53" stroke="#000000" fill="#cccccc"/>
   <rect id="svg_115" height="10.57143" width="140" y="85" x="53" stroke="#000000" fill="#cccccc"/>
   <rect id="svg_116" height="9.69048" width="140" y="112.30952" x="53" stroke="#000000" fill="#cccccc"/>
  </g>
  <g id="svg_120">
   <ellipse ry="6.5" rx="6.5" id="svg_118" cy="103.5" cx="66.5" stroke="#000000" fill="#4c4c4c"/>
   <line id="svg_119" y2="103.98943" x2="73.9928" y1="102.98945" x1="59.65984" stroke="#000000" fill="none"/>
  </g>
  <g transform="rotate(-89, 88.4924, 103.5)" id="svg_123">
   <ellipse ry="6.5" rx="6.5" id="svg_121" cy="103.5" cx="88.1661" stroke="#000000" fill="#4c4c4c"/>
   <line id="svg_122" y2="103.98943" x2="95.6589" y1="102.98945" x1="81.32594" stroke="#000000" fill="none"/>
  </g>
  <g transform="rotate(-65, 113.492, 103.5)" id="svg_126">
   <ellipse ry="6.5" rx="6.5" id="svg_124" cy="103.5" cx="113.16545" stroke="#000000" fill="#4c4c4c"/>
   <line id="svg_125" y2="103.98943" x2="120.65824" y1="102.98945" x1="106.32528" stroke="#000000" fill="none"/>
  </g>
  <g transform="rotate(28, 135.158, 103.5)" id="svg_129">
   <ellipse ry="6.5" rx="6.5" id="svg_127" cy="103.5" cx="134.83155" stroke="#000000" fill="#4c4c4c"/>
   <line id="svg_128" y2="103.98943" x2="142.32434" y1="102.98945" x1="127.99138" stroke="#000000" fill="none"/>
  </g>
  <g transform="rotate(-3, 157.824, 103.5)" id="svg_132">
   <ellipse ry="6.5" rx="6.5" id="svg_130" cy="103.5" cx="157.49762" stroke="#000000" fill="#4c4c4c"/>
   <line id="svg_131" y2="103.98943" x2="164.99041" y1="102.98945" x1="150.65746" stroke="#000000" fill="none"/>
  </g>
  <g transform="rotate(48, 179.157, 103.5)" id="svg_135">
   <ellipse ry="6.5" rx="6.5" id="svg_133" cy="103.5" cx="178.83039" stroke="#000000" fill="#4c4c4c"/>
   <line id="svg_134" y2="103.98943" x2="186.32319" y1="102.98945" x1="171.99023" stroke="#000000" fill="none"/>
  </g>
  <rect stroke-width="0.5" stroke="#000000" id="svg_139" height="10" width="14" y="231.33334" x="61.33335" fill="#999999"/>
  <rect stroke-width="0.5" stroke="#000000" id="svg_140" height="10" width="14" y="246.00001" x="61.33335" fill="#999999"/>
  <rect stroke-width="0.5" stroke="#000000" id="svg_141" height="10" width="14" y="259.33334" x="61.33335" fill="#999999"/>
  <rect stroke-width="0.5" stroke="#000000" id="svg_142" height="10" width="14" y="274.00001" x="61.33335" fill="#999999"/>
  <rect stroke-width="0.5" stroke="#000000" id="svg_147" height="10" width="14" y="288.66668" x="61.33335" fill="#999999"/>
  <rect stroke-width="0.5" stroke="#000000" id="svg_148" height="10" width="14" y="303.33334" x="61.33335" fill="#999999"/>
  <rect stroke-width="0.5" stroke="#000000" id="svg_149" height="10" width="14" y="316.66668" x="61.33335" fill="#999999"/>
  <rect stroke-width="0.5" stroke="#000000" id="svg_150" height="10" width="14" y="331.33334" x="61.33335" fill="#999999"/>
  <rect stroke-width="0.5" stroke="#000000" id="svg_151" height="10" width="14" y="352.00001" x="61.33335" fill="#999999"/>
  <rect stroke-width="0.5" stroke="#000000" id="svg_152" height="10" width="14" y="366.66668" x="61.33335" fill="#999999"/>
  <rect stroke-width="0.5" stroke="#000000" id="svg_153" height="10" width="14" y="380.00001" x="61.33335" fill="#999999"/>
  <rect stroke-width="0.5" stroke="#000000" id="svg_154" height="10" width="14" y="394.66668" x="60.66668" fill="#999999"/>
  <rect stroke-width="0.5" stroke="#000000" id="svg_155" height="10" width="14" y="409.33335" x="60.66668" fill="#999999"/>
  <rect stroke-width="0.5" stroke="#000000" id="svg_156" height="10" width="14" y="424.00001" x="60.66668" fill="#999999"/>
  <g id="svg_189">
   <ellipse ry="5" rx="5.27778" id="svg_159" cy="203.66666" cx="342.82513" stroke-width="0" stroke="#000000" fill="#000000"/>
   <ellipse ry="5" rx="5.27778" id="svg_160" cy="217.66666" cx="342.82513" stroke-width="0" stroke="#000000" fill="#000000"/>
   <ellipse ry="5" rx="5.27778" id="svg_161" cy="229.66666" cx="342.82513" stroke-width="0" stroke="#000000" fill="#000000"/>
   <ellipse ry="5" rx="5.27778" id="svg_162" cy="243.66666" cx="342.82513" stroke-width="0" stroke="#000000" fill="#000000"/>
   <ellipse ry="5" rx="5.27778" id="svg_163" cy="256.66666" cx="342.82513" stroke-width="0" stroke="#000000" fill="#000000"/>
   <ellipse ry="5" rx="5.27778" id="svg_164" cy="270.66666" cx="342.82513" stroke-width="0" stroke="#000000" fill="#000000"/>
   <ellipse ry="5" rx="5.27778" id="svg_165" cy="282.66666" cx="342.82513" stroke-width="0" stroke="#000000" fill="#000000"/>
   <ellipse ry="5" rx="5.27778" id="svg_166" cy="295.33333" cx="342.82513" stroke-width="0" stroke="#000000" fill="#000000"/>
   <ellipse ry="5" rx="5.27778" id="svg_167" cy="308.33333" cx="342.82513" stroke-width="0" stroke="#000000" fill="#000000"/>
   <ellipse ry="5" rx="5.27778" id="svg_168" cy="321.66666" cx="342.82513" stroke-width="0" stroke="#000000" fill="#000000"/>
   <ellipse ry="5" rx="5.27778" id="svg_169" cy="333.66666" cx="342.82513" stroke-width="0" stroke="#000000" fill="#000000"/>
   <ellipse ry="5" rx="5.27778" id="svg_170" cy="347.66666" cx="342.82513" stroke-width="0" stroke="#000000" fill="#000000"/>
   <ellipse ry="5" rx="5.27778" id="svg_171" cy="363.66666" cx="343.60703" stroke-width="0" stroke="#000000" fill="#000000"/>
   <ellipse ry="5" rx="5.27778" id="svg_172" cy="377.66666" cx="343.60703" stroke-width="0" stroke="#000000" fill="#000000"/>
   <ellipse ry="5" rx="5.27778" id="svg_173" cy="389" cx="344.38892" stroke-width="0" stroke="#000000" fill="#000000"/>
   <ellipse ry="5" rx="5.27778" id="svg_174" cy="403" cx="344.38892" stroke-width="0" stroke="#000000" fill="#000000"/>
   <rect stroke-width="0.5" stroke="#000000" id="svg_175" height="10" width="16.41975" y="198.00001" x="318.00001" fill="#999999"/>
   <rect stroke-width="0.5" stroke="#000000" id="svg_176" height="10" width="16.41975" y="212.66667" x="318.00001" fill="#999999"/>
   <rect stroke-width="0.5" stroke="#000000" id="svg_177" height="10" width="16.41975" y="226.00001" x="318.00001" fill="#999999"/>
   <rect stroke-width="0.5" stroke="#000000" id="svg_178" height="10" width="16.41975" y="240.66667" x="318.00001" fill="#999999"/>
   <rect stroke-width="0.5" stroke="#000000" id="svg_179" height="10" width="16.41975" y="255.33334" x="318.00001" fill="#999999"/>
   <rect stroke-width="0.5" stroke="#000000" id="svg_180" height="10" width="16.41975" y="270.00001" x="318.00001" fill="#999999"/>
   <rect stroke-width="0.5" stroke="#000000" id="svg_181" height="10" width="16.41975" y="282.66668" x="318.00001" fill="#999999"/>
   <rect stroke-width="0.5" stroke="#000000" id="svg_182" height="10" width="16.41975" y="297.33334" x="318.00001" fill="#999999"/>
   <rect stroke-width="0.5" stroke="#000000" id="svg_183" height="10" width="16.41975" y="317.33334" x="318.00001" fill="#999999"/>
   <rect stroke-width="0.5" stroke="#000000" id="svg_184" height="10" width="16.41975" y="332.00001" x="318.00001" fill="#999999"/>
   <rect stroke-width="0.5" stroke="#000000" id="svg_185" height="10" width="16.41975" y="344.66668" x="318.00001" fill="#999999"/>
   <rect stroke-width="0.5" stroke="#000000" id="svg_186" height="10" width="16.41975" y="359.33334" x="318.78191" fill="#999999"/>
   <rect stroke-width="0.5" stroke="#000000" id="svg_187" height="10" width="16.41975" y="374.00001" x="318.78191" fill="#999999"/>
   <rect stroke-width="0.5" stroke="#000000" id="svg_188" height="10" width="16.41975" y="388.00001" x="319.5638" fill="#999999"/>
  </g>
  <ellipse ry="5" rx="5.27778" id="svg_190" cy="418.33334" cx="344.82513" stroke-width="0" stroke="#000000" fill="#000000"/>
  <ellipse ry="5" rx="5.27778" id="svg_191" cy="432.33334" cx="344.82513" stroke-width="0" stroke="#000000" fill="#000000"/>
  <ellipse ry="5" rx="5.27778" id="svg_192" cy="444.33334" cx="344.82513" stroke-width="0" stroke="#000000" fill="#000000"/>
  <ellipse ry="5" rx="5.27778" id="svg_193" cy="458.33334" cx="344.82513" stroke-width="0" stroke="#000000" fill="#000000"/>
  <ellipse ry="5" rx="5.27778" id="svg_194" cy="471.33334" cx="344.82513" stroke-width="0" stroke="#000000" fill="#000000"/>
  <ellipse ry="5" rx="5.27778" id="svg_195" cy="485.33334" cx="344.15847" stroke-width="0" stroke="#000000" fill="#000000"/>
  <ellipse ry="5" rx="5.27778" id="svg_196" cy="497.33334" cx="344.15847" stroke-width="0" stroke="#000000" fill="#000000"/>
  <ellipse ry="5" rx="5.27778" id="svg_197" cy="510" cx="344.15847" stroke-width="0" stroke="#000000" fill="#000000"/>
  <rect stroke-width="0.5" stroke="#000000" id="svg_206" height="10" width="16.41975" y="412.66668" x="320.00001" fill="#999999"/>
  <rect stroke-width="0.5" stroke="#000000" id="svg_207" height="10" width="16.41975" y="427.33335" x="320.00001" fill="#999999"/>
  <rect stroke-width="0.5" stroke="#000000" id="svg_208" height="10" width="16.41975" y="440.66668" x="320.00001" fill="#999999"/>
  <rect stroke-width="0.5" stroke="#000000" id="svg_209" height="10" width="16.41975" y="455.33335" x="320.00001" fill="#999999"/>
  <rect stroke-width="0.5" stroke="#000000" id="svg_210" height="10" width="16.41975" y="470.00001" x="319.33335" fill="#999999"/>
  <rect stroke-width="0.5" stroke="#000000" id="svg_211" height="10" width="16.41975" y="484.66668" x="319.33335" fill="#999999"/>
  <rect stroke-width="0.5" stroke="#000000" id="svg_212" height="10" width="16.41975" y="500.58325" x="319.33335" fill="#999999"/>
  <rect id="svg_221" height="3.99998" width="133.33334" y="331.33336" x="96.00001" stroke="#000000" fill="#000000"/>
  <rect id="svg_222" height="7.33333" width="6.66667" y="356.66668" x="122.66668" stroke="#000000" fill="#000000"/>
  <rect id="svg_223" height="7.33333" width="6.66667" y="356.66668" x="142.00001" stroke="#000000" fill="#000000"/>
  <rect id="svg_224" height="7.33333" width="6.66667" y="356.66668" x="122.66668" stroke="#000000" fill="#000000"/>
  <rect id="svg_225" height="7.33333" width="6.66667" y="356.66668" x="160.66668" stroke="#000000" fill="#000000"/>
  <rect id="svg_226" height="7.33333" width="6.66667" y="356.66668" x="180.00002" stroke="#000000" fill="#000000"/>
  <line id="svg_228" y2="544.66668" x2="66.00001" y1="430.66668" x1="64.00001" fill="none"/>
  <line id="svg_229" y2="545.33335" x2="64.66668" y1="434.00001" x1="64.66668" stroke="#666666" fill="none"/>
  <line id="svg_231" y2="436.00004" x2="80.00001" y1="202.00004" x1="80.00001" stroke="#666666" fill="none"/>
  <path id="svg_232" d="m82.00001,202.58335l0,233.41668" opacity="undefined" stroke="#666666" fill="none"/>
  <line id="svg_233" y2="436.00004" x2="78.00001" y1="160.33358" x1="78.00001" stroke="#666666" fill="none"/>
  <path id="svg_234" d="m84.33339,202.58335l0,233.41668" opacity="undefined" stroke="#666666" fill="none"/>
  <path id="svg_235" d="m86.33344,202.58335l0,233.41668" opacity="undefined" stroke="#666666" fill="none"/>
  <line id="svg_236" y2="202.59372" x2="155.67407" y1="202.59372" x1="78.0058" stroke="#666666" fill="none"/>
  <line id="svg_237" y2="200.26034" x2="155.67407" y1="200.26034" x1="78.0058" stroke="#666666" fill="none"/>
  <line id="svg_238" y2="197.59362" x2="155.67407" y1="197.59362" x1="78.0058" stroke="#666666" fill="none"/>
  <line id="svg_239" y2="159.00949" x2="143.34043" y1="197.01028" x1="143.34043" stroke="#666666" fill="none"/>
  <line id="svg_240" y2="159.00949" x2="121.67332" y1="197.01028" x1="121.67332" stroke="#666666" fill="none"/>
  <line id="svg_241" y2="159.00949" x2="99.67286" y1="197.01028" x1="99.67286" stroke="#666666" fill="none"/>
  <line id="svg_242" y2="159.00949" x2="121.67332" y1="197.01028" x1="121.67332" stroke="#666666" fill="none"/>
  <line id="svg_243" y2="160.00951" x2="77.67241" y1="160.00951" x1="145.67382" stroke="#666666" fill="none"/>
  <rect id="svg_72" height="16" width="9" y="151" x="124" stroke-width="0" stroke="#000000" fill="#000000"/>
  <rect id="svg_71" height="16" width="9" y="151" x="102" stroke-width="0" stroke="#000000" fill="#000000"/>
  <rect id="svg_70" height="16" width="9" y="151" x="80" stroke-width="0" stroke="#000000" fill="#000000"/>
  <line id="svg_245" y2="436.6819" x2="86.67259" y1="436.6819" x1="64.3388" stroke="#666666" fill="none"/>
  <line id="svg_249" y2="497.01649" x2="63.33878" y1="497.68317" x1="131.34018" stroke="#666666" fill="none"/>
  <line id="svg_250" y2="543.68413" x2="63.33878" y1="544.01748" x1="159.34076" stroke="#666666" fill="none"/>
  <g id="svg_108">
   <rect id="svg_105" height="15.03922" width="11.92982" y="491" x="131.4386" stroke="#000000" fill="#000000"/>
   <rect id="svg_106" height="15.03922" width="11.92982" y="534.96079" x="104" stroke="#000000" fill="#000000"/>
   <rect id="svg_107" height="15.03922" width="11.92982" y="534.96079" x="160.07017" stroke="#000000" fill="#000000"/>
  </g>
  <line transform="rotate(-1, 160.463, 407.352)" id="svg_255" y2="406.76916" x2="133.8367" y1="407.93582" x1="187.08854" stroke="#666666" fill="none"/>
  <line transform="rotate(-1, 160.463, 409.102)" id="svg_256" y2="408.51911" x2="133.8367" y1="409.68577" x1="187.08854" stroke="#666666" fill="none"/>
  <line transform="rotate(-1, 160.463, 410.602)" id="svg_257" y2="410.01906" x2="133.8367" y1="411.18572" x1="187.08854" stroke="#666666" fill="none"/>
  <line transform="rotate(-1, 160.463, 412.102)" id="svg_258" y2="411.51902" x2="133.8367" y1="412.68568" x1="187.08854" stroke="#666666" fill="none"/>
  <line transform="rotate(-1, 160.463, 413.851)" id="svg_259" y2="413.26897" x2="133.8367" y1="414.43563" x1="187.08854" stroke="#666666" fill="none"/>
  <line transform="rotate(-1, 160.463, 415.351)" id="svg_260" y2="414.76892" x2="133.8367" y1="415.93558" x1="187.08854" stroke="#666666" fill="none"/>
  <line transform="rotate(-2, 135.935, 354.229)" id="svg_261" y2="352.67918" x2="86.28751" y1="355.77895" x1="185.58338" stroke="#666666" fill="none"/>
  <line transform="rotate(-2, 135.935, 352.729)" id="svg_262" y2="351.17922" x2="86.28751" y1="354.279" x1="185.58338" stroke="#666666" fill="none"/>
  <line transform="rotate(-2, 135.935, 351.229)" id="svg_263" y2="349.67927" x2="86.28751" y1="352.77904" x1="185.58338" stroke="#666666" fill="none"/>
 </g>
</svg>